<svg width="72" height="73" viewBox="0 0 72 73" fill="none" xmlns="http://www.w3.org/2000/svg">
<path d="M71.1282 34.7606C71.1282 29.3401 68.1339 24.608 63.7134 22.1212C61.004 9.52889 48.8297 0 34.2625 0C18.8514 0 6.11824 10.665 4.43738 24.3395C1.70464 26.9772 0 30.6726 0 34.7606C0 42.7537 6.50742 49.2568 14.5059 49.2568C15.0672 49.2568 15.522 48.8021 15.522 48.2413V21.2794C15.522 20.7186 15.0672 20.2639 14.5059 20.2639C13.8229 20.2639 13.1516 20.3147 12.4932 20.4067C15.7285 12.5098 24.2655 6.85483 34.2625 6.85483C44.2751 6.85483 52.8226 12.5277 56.0464 20.4441C55.7808 20.6272 55.6062 20.9329 55.6062 21.2796V48.2415C55.6062 48.8023 56.061 49.257 56.6223 49.257C56.9585 49.257 57.2907 49.2413 57.6212 49.2188C55.3713 56.2138 49.2813 61.7719 41.5293 63.9465C40.6014 62.4467 38.9413 61.4467 37.047 61.4467H31.4779C28.5694 61.4467 26.2109 63.8032 26.2109 66.71V67.7364C26.2109 70.6434 28.5694 73 31.4779 73H37.047C39.7021 73 41.898 71.0357 42.2603 68.4819C52.6879 65.7418 60.7083 57.7846 62.6711 47.9314C67.6572 45.6349 71.1282 40.5967 71.1282 34.7606Z" fill="black"/>
</svg>
