<svg width="52" height="46" viewBox="0 0 52 46" fill="none" xmlns="http://www.w3.org/2000/svg">
<path d="M8.70057 0C9.74283 0 10.6401 0.73582 10.8395 1.75285L10.9754 2.875H49.1039C50.9437 2.875 52.4119 4.69434 51.8953 6.52805L47.0012 23.7816C46.6478 25.0215 45.5058 25.875 44.2098 25.875H15.4707L16.3045 30.1875H44.2279C45.4333 30.1875 46.4031 31.1488 46.4031 32.3438C46.4031 33.5387 45.4333 34.5 44.2279 34.5H14.4194C13.4587 34.5 12.5615 33.7633 12.3621 32.748L6.90064 4.3125H2.17514C0.974283 4.3125 0 3.34668 0 2.15625C0 0.96582 0.974283 0 2.17514 0H8.70057ZM11.6008 41.6875C11.6008 39.3066 13.5493 37.375 15.951 37.375C18.3528 37.375 20.3013 39.3066 20.3013 41.6875C20.3013 44.0684 18.3528 46 15.951 46C13.5493 46 11.6008 44.0684 11.6008 41.6875ZM46.4031 41.6875C46.4031 44.0684 44.4545 46 42.0528 46C39.651 46 37.7025 44.0684 37.7025 41.6875C37.7025 39.3066 39.651 37.375 42.0528 37.375C44.4545 37.375 46.4031 39.3066 46.4031 41.6875Z" fill="white"/>
</svg>
