<svg width="20" height="18" viewBox="0 0 20 18" fill="none" xmlns="http://www.w3.org/2000/svg">
<path d="M19.9706 13.605L19.0624 17.1486C18.9348 17.6495 18.4455 18 17.8724 18C8.01638 17.9993 0 10.7856 0 1.91613C0 1.40076 0.389451 0.959924 0.946183 0.845672L4.88406 0.0283305C5.45755 -0.091265 6.04354 0.176612 6.28184 0.66533L8.0992 4.47959C8.31165 4.92886 8.16835 5.45231 7.74839 5.76097L5.64507 7.2807C6.97253 9.71409 9.17118 11.6926 11.8761 12.8878L13.5982 10.9965C13.9376 10.6176 14.5236 10.4864 15.0229 10.681L19.2616 12.316C19.7714 12.5574 20.1035 13.0917 19.9706 13.605Z" fill="white"/>
</svg>
