<svg width="50" height="57" viewBox="0 0 50 57" fill="none" xmlns="http://www.w3.org/2000/svg">
<path d="M44.6429 0.0625H5.35714C3.93634 0.0625 2.57373 0.704518 1.56907 1.84732C0.564412 2.99012 0 4.54009 0 6.15625L0 50.8438C0 52.4599 0.564412 54.0099 1.56907 55.1527C2.57373 56.2955 3.93634 56.9375 5.35714 56.9375H20.6752V37.6013H13.644V28.5H20.6752V21.5633C20.6752 13.6731 24.8047 9.31484 31.1295 9.31484C34.1585 9.31484 37.3259 9.9293 37.3259 9.9293V17.6734H33.8359C30.3973 17.6734 29.3248 20.1008 29.3248 22.5903V28.5H37.0011L35.7734 37.6013H29.3248V56.9375H44.6429C46.0637 56.9375 47.4263 56.2955 48.4309 55.1527C49.4356 54.0099 50 52.4599 50 50.8438V6.15625C50 4.54009 49.4356 2.99012 48.4309 1.84732C47.4263 0.704518 46.0637 0.0625 44.6429 0.0625Z" fill="white"/>
</svg>
