<svg width="74" height="47" viewBox="0 0 74 47" fill="none" xmlns="http://www.w3.org/2000/svg">
<path d="M51.8 0H22.2C9.93913 0 0 10.4159 0 23.5C0 36.5841 9.93913 47 22.2 47H51.8C64.0562 47 74 36.4789 74 23.5C74 10.5211 64.0562 0 51.8 0ZM28.5709 26.4375H24.8709V30.3542C24.8709 31.9698 23.6245 33.2917 22.0982 33.2917C20.572 33.2917 19.3209 31.9698 19.3209 30.3542V26.4375L15.725 26.3273C14.1988 26.3273 12.8459 25.1156 12.8459 23.5C12.8459 21.8844 14.1005 20.5613 15.6267 20.5613L19.3209 20.5625V16.6458C19.3209 15.0302 20.572 13.7083 22.0982 13.7083C23.6245 13.7083 24.8709 15.0302 24.8709 16.6458V20.5625H28.5709C30.0972 20.5625 31.3482 21.8844 31.3482 23.5C31.3459 25.1156 30.2013 26.4375 28.5709 26.4375ZM49.8459 34.2708C47.2883 34.2708 45.325 32.0836 45.325 29.4852C45.325 26.8867 47.3912 24.5893 49.8459 24.5893C52.3007 24.5893 54.3669 26.7778 54.3669 29.4852C54.3669 32.1926 52.5053 34.2708 49.8459 34.2708ZM57.2459 22.5208C54.6883 22.5208 52.725 20.3336 52.725 17.7352C52.725 15.1367 54.7912 12.8393 57.2459 12.8393C59.8036 12.8393 61.7669 15.0278 61.7669 17.7352C61.7669 20.4426 59.9053 22.5208 57.2459 22.5208Z" fill="white"/>
</svg>
