<svg width="200" height="128" viewBox="0 0 200 128" fill="none" xmlns="http://www.w3.org/2000/svg">
<path d="M140 0H60C26.8625 0 0 28.151 0 63.5135C0 98.876 26.8625 127.027 60 127.027H140C173.125 127.027 200 98.5915 200 63.5135C200 28.4355 173.125 0 140 0ZM77.2188 71.4527H67.2188V82.0383C67.2188 86.4048 63.85 89.9775 59.725 89.9775C55.6 89.9775 52.2188 86.4048 52.2188 82.0383V71.4527L42.5 71.155C38.375 71.155 34.7188 67.8801 34.7188 63.5135C34.7188 59.147 38.1094 55.571 42.2344 55.571L52.2188 55.5743V44.9887C52.2188 40.6222 55.6 37.0495 59.725 37.0495C63.85 37.0495 67.2188 40.6222 67.2188 44.9887V55.5743H77.2188C81.3438 55.5743 84.725 59.147 84.725 63.5135C84.7188 67.8801 81.625 71.4527 77.2188 71.4527ZM134.719 92.6239C127.806 92.6239 122.5 86.7125 122.5 79.6896C122.5 72.6667 128.084 66.4576 134.719 66.4576C141.353 66.4576 146.938 72.3723 146.938 79.6896C146.938 87.0069 141.906 92.6239 134.719 92.6239ZM154.719 60.8671C147.806 60.8671 142.5 54.9557 142.5 47.9328C142.5 40.91 148.084 34.7009 154.719 34.7009C161.631 34.7009 166.938 40.6156 166.938 47.9328C166.938 55.2501 161.906 60.8671 154.719 60.8671Z" fill="#2596BE"/>
</svg>
