<svg width="57" height="57" viewBox="0 0 57 57" fill="none" xmlns="http://www.w3.org/2000/svg">
<path d="M28.5 21.7134C29.8421 21.7139 31.154 22.1124 32.2697 22.8584C33.3854 23.6044 34.2549 24.6645 34.7682 25.9047C35.2814 27.1448 35.4155 28.5093 35.1533 29.8256C34.8912 31.1418 34.2446 32.3509 33.2954 33.2997C32.3462 34.2486 31.1369 34.8947 29.8205 35.1563C28.5041 35.418 27.1397 35.2835 25.8998 34.7697C24.6598 34.256 23.6001 33.3861 22.8545 32.2701C22.1089 31.1542 21.7109 29.8421 21.7109 28.5C21.7122 26.7001 22.428 24.9743 23.701 23.7018C24.974 22.4293 26.7001 21.7141 28.5 21.7134ZM12.6329 16.4969C12.9784 15.6214 13.5001 14.8261 14.1657 14.1606C14.8312 13.495 15.6264 12.9733 16.502 12.6278C19.1739 11.573 25.5355 11.8097 28.5 11.8097C31.4645 11.8097 37.8198 11.5641 40.4993 12.6278C41.3748 12.9733 42.1701 13.495 42.8356 14.1606C43.5012 14.8261 44.0229 15.6214 44.3684 16.4969C45.4219 19.1688 45.1865 25.5368 45.1865 28.4987C45.1865 31.4607 45.4219 37.821 44.3633 40.5018C44.0178 41.3774 43.4961 42.1726 42.8305 42.8382C42.165 43.5037 41.3697 44.0254 40.4942 44.3709C37.8223 45.4257 31.4607 45.189 28.4949 45.189C25.5291 45.189 19.1764 45.4346 16.4969 44.3709C15.6214 44.0254 14.8261 43.5037 14.1606 42.8382C13.495 42.1726 12.9733 41.3774 12.6278 40.5018C11.5654 37.8299 11.8097 31.462 11.8097 28.5C11.8097 25.538 11.5654 19.179 12.6278 16.4982L12.6329 16.4969ZM28.5 38.933C30.5635 38.933 32.5806 38.3212 34.2963 37.1748C36.012 36.0284 37.3492 34.3989 38.1389 32.4925C38.9285 30.5862 39.1351 28.4884 38.7326 26.4646C38.33 24.4408 37.3364 22.5818 35.8773 21.1227C34.4182 19.6636 32.5592 18.67 30.5354 18.2674C28.5116 17.8649 26.4138 18.0715 24.5075 18.8611C22.6011 19.6508 20.9716 20.988 19.8252 22.7037C18.6788 24.4194 18.067 26.4365 18.067 28.5C18.0653 29.8706 18.334 31.228 18.8577 32.4945C19.3814 33.7611 20.1499 34.9119 21.119 35.881C22.0881 36.8501 23.2389 37.6186 24.5055 38.1423C25.772 38.666 27.1294 38.9347 28.5 38.933ZM17.6369 20.0645C18.1186 20.0648 18.5896 19.9222 18.9902 19.6547C19.3908 19.3873 19.7032 19.007 19.8877 18.5621C20.0722 18.1171 20.1206 17.6274 20.0268 17.155C19.933 16.6825 19.7011 16.2485 19.3606 15.9078C19.0201 15.5671 18.5862 15.335 18.1137 15.2409C17.6413 15.1469 17.1516 15.195 16.7066 15.3793C16.2615 15.5636 15.8811 15.8757 15.6135 16.2762C15.3458 16.6767 15.203 17.1476 15.203 17.6293C15.2016 17.9492 15.2635 18.2662 15.3849 18.5621C15.5063 18.858 15.685 19.1271 15.9107 19.3538C16.1363 19.5805 16.4045 19.7604 16.6999 19.8833C16.9952 20.0061 17.3119 20.0694 17.6318 20.0696L17.6369 20.0645ZM6.10714 0H50.8929C52.5126 0 54.0659 0.64343 55.2113 1.78874C56.3566 2.93405 57 4.48743 57 6.10714V50.8929C57 52.5126 56.3566 54.066 55.2113 55.2113C54.0659 56.3566 52.5126 57 50.8929 57H6.10714C4.48743 57 2.93405 56.3566 1.78874 55.2113C0.643425 54.066 -3.8147e-06 52.5126 -3.8147e-06 50.8929V6.10714C-3.8147e-06 4.48743 0.643425 2.93405 1.78874 1.78874C2.93405 0.64343 4.48743 0 6.10714 0ZM8.28535 36.8973C8.44948 40.1583 9.19379 43.0477 11.5743 45.4219C13.9548 47.796 16.8417 48.5556 20.0989 48.7108C23.4591 48.9004 33.5333 48.9004 36.8935 48.7108C40.1545 48.5467 43.0337 47.8011 45.4181 45.4219C47.8024 43.0426 48.5518 40.1519 48.707 36.8973C48.8966 33.5359 48.8966 23.4603 48.707 20.1027C48.5429 16.8417 47.8075 13.9523 45.4181 11.5781C43.0286 9.20397 40.1417 8.4533 36.8935 8.29808C33.5333 8.10851 23.4591 8.10851 20.0989 8.29808C16.8379 8.46221 13.9497 9.20779 11.5743 11.587C9.19888 13.9663 8.44058 16.857 8.28535 20.1179C8.09578 23.4667 8.09578 33.5333 8.28535 36.8973Z" fill="white"/>
</svg>
