<svg width="94" height="67" viewBox="0 0 94 67" fill="none" xmlns="http://www.w3.org/2000/svg">
<path d="M27.3462 45.2404C29.5111 45.2404 31.2528 46.8327 31.2528 48.812C31.2528 50.7912 29.5111 52.3836 27.3462 52.3836H19.533C17.3681 52.3836 15.6264 50.7912 15.6264 48.812C15.6264 46.8327 17.3681 45.2404 19.533 45.2404H27.3462ZM58.599 45.2404C60.7639 45.2404 62.5056 46.8327 62.5056 48.812C62.5056 50.7912 60.7639 52.3836 58.599 52.3836H40.3682C38.2033 52.3836 36.4616 50.7912 36.4616 48.812C36.4616 46.8327 38.2033 45.2404 40.3682 45.2404H58.599ZM83.3408 0C89.0867 0 93.7584 4.26361 93.7584 9.52429V57.1457C93.7584 62.399 89.0867 66.67 83.3408 66.67H10.4176C4.6635 66.67 0 62.399 0 57.1457V9.52429C0 4.26361 4.6635 0 10.4176 0H83.3408ZM83.3408 7.14321H10.4176C8.97867 7.14321 7.8132 8.20874 7.8132 9.52429V14.2864H85.9452V9.52429C85.9452 8.20874 84.7732 7.14321 83.3408 7.14321ZM85.9452 28.5729H7.8132V57.1457C7.8132 58.4553 8.97867 59.5268 10.4176 59.5268H83.3408C84.7732 59.5268 85.9452 58.4553 85.9452 57.1457V28.5729Z" fill="black"/>
</svg>
