<svg width="55" height="73" viewBox="0 0 55 73" fill="none" xmlns="http://www.w3.org/2000/svg">
<path d="M47.7396 26.2949H46.4489V17.6344C46.4493 7.91081 37.8519 0 27.2842 0C16.7168 0 8.11942 7.91081 8.11942 17.6344V26.2949H6.82796C3.06322 26.2949 0 29.1138 0 32.5782V66.6367C0 70.1011 3.06322 72.92 6.82796 72.92H47.7396C51.5043 72.92 54.5675 70.1011 54.5675 66.6367V32.5782C54.5675 29.1138 51.5047 26.2949 47.7396 26.2949ZM13.972 17.6344C13.972 10.8805 19.9439 5.38566 27.2842 5.38566C34.6244 5.38566 40.5963 10.8805 40.5963 17.6344V26.2949H13.972V17.6344ZM48.715 66.6371C48.715 67.1236 48.2682 67.5347 47.7396 67.5347H6.82796C6.29928 67.5347 5.85254 67.1236 5.85254 66.6371V32.5782C5.85254 32.0917 6.29928 31.6806 6.82796 31.6806H11.0457H43.5226H47.7396C48.2682 31.6806 48.715 32.0917 48.715 32.5782V66.6371Z" fill="black"/>
<path d="M26.9244 40.5361C25.5702 40.5361 24.4724 41.5461 24.4724 42.7925V51.4315C24.4724 52.6779 25.5702 53.6879 26.9244 53.6879C28.2785 53.6879 29.3764 52.6779 29.3764 51.4315V42.7925C29.3764 41.5461 28.2785 40.5361 26.9244 40.5361Z" fill="black"/>
</svg>
